<svg xmlns="http://www.w3.org/2000/svg" viewBox="0 0 512 512">
  <defs>
    <linearGradient id="bg" x1="0%" y1="0%" x2="100%" y2="100%">
      <stop offset="0%" style="stop-color:#1a5276"/>
      <stop offset="100%" style="stop-color:#2980b9"/>
    </linearGradient>
    <linearGradient id="drop" x1="0%" y1="0%" x2="0%" y2="100%">
      <stop offset="0%" style="stop-color:#85c1e9"/>
      <stop offset="100%" style="stop-color:#2471a3"/>
    </linearGradient>
  </defs>
  <!-- Rounded square background -->
  <rect width="512" height="512" rx="96" fill="url(#bg)"/>
  <!-- Water drop shape -->
  <path d="M256 80 C256 80 370 220 370 310 C370 373 319 420 256 420 C193 420 142 373 142 310 C142 220 256 80 256 80Z" fill="url(#drop)" opacity="0.9"/>
  <!-- Pump impeller/wave inside drop -->
  <path d="M220 290 Q238 260 256 290 Q274 320 292 290" stroke="white" stroke-width="14" fill="none" stroke-linecap="round"/>
  <path d="M204 320 Q230 290 256 320 Q282 350 308 320" stroke="white" stroke-width="10" fill="none" stroke-linecap="round" opacity="0.6"/>
  <!-- Small Italian flag accent at bottom -->
  <rect x="216" y="440" width="24" height="8" rx="2" fill="#009246"/>
  <rect x="244" y="440" width="24" height="8" rx="2" fill="#ffffff"/>
  <rect x="272" y="440" width="24" height="8" rx="2" fill="#ce2b37"/>
</svg>
